<?xml version="1.0" encoding="UTF-8"?>
<svg id="Layer_1" xmlns="http://www.w3.org/2000/svg" version="1.1" viewBox="0 0 283.46 283.46">
  <!-- Generator: Adobe Illustrator 29.7.1, SVG Export Plug-In . SVG Version: 2.1.1 Build 8)  -->
  <defs>
    <style>
      .st0 {
        fill: #010101;
      }
    </style>
  </defs>
  <g>
    <path class="st0" d="M238.93,99.03c-3.53,3.39-7.47,3.93-12.12,2.76-1.84-.46-3.74-.86-5.57-1.39-10.81-3.08-7.76-13.65-2.19-20.26,5.34-6.34,15.71-8.8,21.66-1.86l1.79,2.58c1.63-6.76-2.81-13.89-9.91-14.58-4.2-.41-4.97,3.27-8.27,4.34-5.92,1.91-4.39-4.64-1.33-7.03,4.45-3.47,15.03-1.6,19.25,1.78,6.32,5.06,4.26,14.34,2.82,21.16-1.33,6.27,1.11,12.81-.28,18.78-.68,2.92-2.59,3.27-4.14.68-1.22-2.03-1.7-4.62-1.69-6.95ZM238.04,80.68c.27-.29-1.85-2.04-2.32-1.96l2.32,1.96ZM227.3,80.2c-6.26.76-10.18,7.37-6.74,13.05.82,1.35,3.69,4.15,5.26,4.37,4.41.62,10.66-3.17,12.93-6.87-.21-5.99-5.22-11.29-11.45-10.54ZM242.14,83c-.79.4-1.27.47-2.14.18l1.25,2.85c.46.05.28,0,.36-.26.26-.88.23-1.88.53-2.77Z"/>
    <path class="st0" d="M88.41,73.96c1.97-.05,4.07.39,6.01.49,1.47.08,3-.1,4.46,0,5.52.37,12.88,3.43,14.1,9.43.35,1.74.5,4.65.62,6.5.38,6-2.92,16-8.05,19.58-6.93,4.85-20.31-1.04-26.02-6.04-7.16-6.27-5.04-14.5-1.16-22.01.69-1.33,1.69-3.26,2.45-4.5,1.57-2.59,4.74-3.39,7.59-3.46ZM95.37,78.42c-6.92.15-12.92,2.86-14.17,10.25-.34,1.99-.77,6.49-.23,8.31.87,2.93,7.71,5.58,10.47,6.28,2.44.62,8.29,1.69,10.56,1.04,2.13-.61,6.72-6.27,7.25-8.43.4-1.6.65-5.97.33-7.53-1.07-5.17-9.21-10.02-14.22-9.91ZM97.64,108.29c1.04.09,2.31,0,3.39,0,.04,0,.85-.17.8-.35-2.5.24-4.93-.33-7.39-.54-.14-.01-.65-.05-.36.18,1.13.08,2.47.61,3.56.71Z"/>
    <path class="st0" d="M207.55,82.47c-5.74,2.64-16.98,5.03-21.54-.65-.94-1.17-2.17-4.58-2.61-6.12-.85-2.95-1.25-11.42.83-13.78,1.33-1.51,3.07-.75,4.04.71,2.34,3.52.21,8.35-.3,12.11-.28,2.01-.39,2.5,1.34,3.78,4.5,3.31,12.47,2.91,17.27.39.36-2.54-1.09-4.85-1.32-7.42-.18-2.08.5-7.51,1.54-9.28,1.25-2.12,4.49-1.9,5.42.36.77,1.87.32,3.54.31,5.37-.01,2.89.71,7.31-.26,9.89-.29.79-1.04,1.47-1.24,1.97-.25.61.34,6.32.27,7.75-.45,9.5-2.91,17.31-12.13,21.37-3.4,1.5-11.71,3.45-13.28-1.34-1.2-3.66,2.47-4.7,5.35-4.64,2.64.06,6.27,1.34,8.64.45,7.66-2.87,7.61-14.14,7.67-20.93ZM209.16,72.84v-1.87s-.35-2.94-.35-2.94c-.02,1.25-.15,2.38.02,3.63.04.27.09,1.08.33,1.18ZM194.18,106.69c-1.5.04-3.04-.37-4.55-.18-.25.03-.53.1-.26.35,1.08.27,2.2.16,3.31.19l1.51-.36Z"/>
    <path class="st0" d="M57.61,74.98c3.17-.08,10.49-.79,12.45,2.26,1.52,2.37.1,5.89-2.75,6.28-3.86.52-7.8-1.51-11.13-3.19-.18,2.06-.7,4.09-.89,6.15-.37,4.03-.61,10.56,1.64,14.04,1.02,1.57,1.38,1.65,3.26,1.55,2.98-.16,7.5-1.92,9.62,1.08,1.79,2.54.82,5.91-2.49,6.22s-9.24-2.91-12.02-4.91c-1.76-1.27-3.34-5.26-3.88-7.34-1.5-5.76-.98-11.82-.41-17.67-3.91.23-10.39,1.31-13.09-2.33-2.15-2.89-.75-5.94,2.84-6.22,4.18-.32,7.42,2.55,11.32,3.38.31-1.99.78-3.97,1.3-5.92.42-1.58,1.37-5.57,2.11-6.79.8-1.31,2.32-1,3.18.06.45-2.67,3.6-3,3.74-.1-1.91,4.36-3.72,8.81-4.81,13.46ZM43.61,76.23c1.05.11,2.23-.08,3.3,0l-3.21-1.51-3.21-.27c.09,1.25,2.11,1.68,3.12,1.78ZM60.29,78.54c1.78.61,3.86,1.63,5.77,1.59.75-.02,1.77-.49.81-1.13s-4.73-.68-5.96-.63c-.22,0-.66-.13-.62.18ZM67.01,105.13c-.36-.43-3.16-.21-3.17.04,1.01.52,2.16.7,3.3.62.12-.06-.11-.64-.13-.67Z"/>
    <path class="st0" d="M125,71.6c-2.5-.31-3.47.92-3.53,3.3-.13,5.26,1.69,11.86,1.92,17.28.05,1.21-.08,2.77-1.69,2.77-.89,0-1.35-.91-1.44-.91-.36,0-.84.56-1.42.56-.95,0-1.59-.81-1.7-1.7-.36-3.01,0-6.41.01-9.44,0-3.28-.56-11.1.92-13.69s4.62-2.77,7.17-2.42c.55.08,1.7.57,2.12.48.23-.05,2.49-1.65,3.04-1.95,4.11-2.24,6.78-2.98,11.34-1.3,7.59,2.8,4.57,12.92,4.29,18.88-.2,4.36.07,8.73.91,13.01-1.09,3.49-3.88.88-4.74-1.34-1.57-4.04-.65-12.49-.62-17,.02-2.27.26-7.92-1.08-9.63-.14-.18-.45-.5-.65-.6-1.8-.92-6.5,1.31-7.73,2.92,2.58,2.37,3.81,5.6,2.4,9-1.15,2.78-3.28,4.69-6.4,3.36-5.02-2.14-3.97-7.18-3.14-11.55ZM129.13,79.58c.36.22,1.46-.09,1.66-.5.5-1.04-.73-3.25-1.43-4.1-.61.74-.95,4.16-.24,4.6Z"/>
    <path class="st0" d="M163.65,70.58c2.99-.38,6.31.74,9.02,1.94,7.38,3.28,12.31,9.58,9.83,17.96-.37,1.26-2.22,5.77-3.04,6.58-1.38,1.35-2.41-.22-2.81-.14-.17.03-1.97,1.62-2.38,1.91-15.14,10.61-33.22-7.44-20.55-21.96,2.14-2.45,6.66-5.87,9.94-6.28ZM165.48,73.92c-1.44.17-3.2.39-4.28,1.42l4.28-1.42ZM155.31,83.53c-1.12,1.03-2.09,3.22-2.14,4.73-.07,2.11,3.03,6.31,4.88,7.24,3.2,1.6,9.93,2.16,13.26.89,4.51-1.71,8.33-10.14,6.27-14.53-.69-1.47-4.2-5.19-5.78-5.44-1.67-.27-5.11.83-6.81,1.37-2.47.79-5.1,1.76-7.15,3.34,1.01,1.11,1.49,3.45-.37,3.93-1,.26-2.15-.44-2.14-1.52Z"/>
    <path class="st0" d="M97.33,83.92c2.6-.32,2.73,4.33.31,4.43s-2.57-4.16-.31-4.43Z"/>
    <path class="st0" d="M104.44,84.65c2.04-.1,2.52,3.19.61,3.79-2.71.85-3.21-3.66-.61-3.79Z"/>
    <path class="st0" d="M163.64,81.25c2.83-.64,3.01,4.18.63,4.38s-2.54-3.95-.63-4.38Z"/>
  </g>
  <g>
    <path class="st0" d="M141.99,182.73c-.02-2.65-.04-6.27-1.5-9.53-1.28-2.86-3.64-5.4-7-7.55-6.21-3.98-14.01-5.67-22.23-4.96-2.79-.44-5.77-.72-8.94-.85-2.9-.12-6.28-.15-9.5,1.08-3.71,1.42-6.38,4.35-7.09,7.72-.17.25-.34.49-.5.73-3.19,4.79-5.58,10.03-7.08,15.58-2,7.37-1.71,13.63.86,18.59,1.94,3.75,5.04,6.44,7.51,8.37,8.16,6.34,17.89,10.41,28.13,11.77,1.24.17,2.69.32,4.22.32,1.43,0,2.95-.13,4.44-.51,3.33-.85,6.57-2.94,9.37-6.04,4.75-5.27,7.13-11.75,8.29-18.69.73-1.81,1.28-3.73,1.56-5.76.39-2.83.19-5.76-.55-8.62,0-.54,0-1.08,0-1.62ZM121.92,217.99c-2.13.55-4.49.34-6.52.07-4.03-.54-7.97-1.54-11.75-2.97,4.13,1.06,8.68,1.78,13.68,2.17,2.3.18,4.91.29,7.42-.48-.87.52-1.82.95-2.84,1.21ZM135.49,197.17c-1.89,4.3-5.13,8.01-8.01,10.96-1.2,1.23-2.48,2.48-3.88,3.06-1.66.69-3.78.59-5.82.43-11.69-.92-20.53-3.69-27.02-8.49-1.92-1.42-3.01-2.62-3.54-3.89-.62-1.48-.56-3.41-.51-5.28.17-5.8.35-12.38,3.56-17.31,3.21-4.93,9.12-7.52,13.51-8.81.89-.26,1.77-.49,2.65-.69,2.04.11,4.12.11,6.21-.27.16-.03.31-.07.45-.12,5.28,1.09,9.71,2.84,13.38,5.29,4.24,2.82,8.25,7.49,9.87,12.9-.03,4.14-.23,8.28-.84,12.22Z"/>
    <path class="st0" d="M198.18,163.06c-3.74-3.26-8.57-5.83-14.77-7.85-2.41-.78-5.06-1.5-7.86-1.42-3.61.1-7.23,1.46-11.38,4.27-8.46,5.72-13.79,13.71-14.62,21.94-.94,9.33,4.28,19.12,12.69,23.83,3.9,2.18,8.37,3.26,12.88,3.26,4.87,0,9.79-1.26,14.09-3.78,1.28-.75,2.5-1.61,3.66-2.56,1.02-.77,2-1.64,2.93-2.59.26.47.66.88,1.17,1.15,1.39.73,3.09.19,3.82-1.2,2.87-5.49,6.44-12.33,5.74-19.77-.52-5.54-3.57-11.11-8.35-15.29ZM167.33,162.75c3.23-2.18,5.89-3.23,8.38-3.3.09,0,.18,0,.27,0,.51,0,1.03.04,1.55.11-3.75,1.04-7.53,2.2-11.15,3.86.31-.22.63-.45.95-.66ZM198.21,180c-.8,6.36-4.07,12.31-8.79,16.28-1.29.96-2.64,1.67-4.01,2.02-7.9,2.04-15.78.19-21-1.71-2.58-.94-6.9-6.35-8.36-9.86-.69-1.66-.62-3.85.21-6.17.63-1.76,1.62-3.45,2.92-5.02l.33.95c.4,1.17,1.5,1.91,2.67,1.91.3,0,.61-.05.92-.15,1.48-.51,2.26-2.12,1.76-3.59l-.52-1.52c-.2-.6-.59-1.08-1.07-1.41.95-.7,1.96-1.35,3.05-1.95,4.72-2.61,10.17-4.08,15.44-5.51,1.41-.38,2.96-.8,4.35-.8.43,0,.84.04,1.23.13,1.46.35,2.87,1.49,4.18,2.64,2.8,2.44,5.78,5.41,6.59,8.95.31,1.35.34,2.88.09,4.82Z"/>
    <path class="st0" d="M115.41,176.69c-1.56,0-2.83,1.27-2.83,2.83v1.61c0,1.56,1.27,2.83,2.83,2.83s2.83-1.27,2.83-2.83v-1.61c0-1.56-1.27-2.83-2.83-2.83Z"/>
    <path class="st0" d="M174.34,171.99c-1.56,0-2.83,1.27-2.83,2.83v1.61c0,1.56,1.27,2.83,2.83,2.83s2.83-1.27,2.83-2.83v-1.61c0-1.56-1.27-2.83-2.83-2.83Z"/>
    <path class="st0" d="M127.22,177.97c-1.56,0-2.83,1.27-2.83,2.83v.64c0,1.56,1.27,2.83,2.83,2.83s2.83-1.27,2.83-2.83v-.64c0-1.56-1.27-2.83-2.83-2.83Z"/>
  </g>
</svg>